<?xml version="1.0" standalone="no"?>
<!DOCTYPE svg PUBLIC "-//W3C//DTD SVG 20010904//EN"
 "http://www.w3.org/TR/2001/REC-SVG-20010904/DTD/svg10.dtd">
<svg version="1.0" xmlns="http://www.w3.org/2000/svg"
 width="300.000000pt" height="291.000000pt" viewBox="0 0 300.000000 291.000000"
 preserveAspectRatio="xMidYMid meet">
<metadata>
Created by potrace 1.10, written by Peter Selinger 2001-2011
</metadata>
<g transform="translate(0.000000,291.000000) scale(0.100000,-0.100000)"
fill="#000000" stroke="none">
<path d="M1486 2558 c-10 -13 -16 -44 -16 -74 0 -48 -3 -54 -37 -80 -21 -16
-49 -41 -61 -56 -13 -16 -33 -28 -44 -28 -22 0 -104 -23 -268 -75 -58 -18
-177 -54 -265 -80 -122 -36 -166 -53 -186 -73 -15 -15 -59 -97 -99 -182 -40
-85 -90 -191 -110 -235 -21 -44 -66 -138 -100 -210 -179 -370 -189 -395 -178
-428 28 -82 103 -153 223 -211 50 -25 122 -51 162 -60 92 -20 252 -20 351 0
160 32 326 143 373 248 l20 45 -25 58 c-13 32 -51 114 -84 183 -33 69 -114
242 -182 385 -67 143 -130 278 -141 300 -10 21 -15 42 -11 46 4 4 41 10 82 13
41 3 98 8 125 11 28 2 88 7 135 10 156 11 205 16 217 27 8 7 25 0 58 -22 l45
-31 0 -652 c0 -359 -4 -657 -8 -663 -6 -10 -466 -164 -488 -164 -12 0 -64 -52
-64 -65 0 -6 10 -21 23 -33 l23 -22 566 0 c557 0 566 0 592 21 14 11 26 26 26
33 0 26 -64 70 -121 81 -38 8 -415 138 -426 147 -10 8 -13 153 -13 664 l0 654
38 25 c21 14 48 39 61 55 12 17 30 30 41 30 24 0 268 71 467 137 29 9 56 14
59 10 7 -6 -10 -45 -126 -292 -29 -60 -66 -139 -82 -175 -17 -36 -66 -138
-108 -227 -109 -226 -108 -221 -73 -284 74 -137 283 -239 489 -239 159 0 324
51 426 131 54 44 108 126 108 166 0 20 -30 94 -75 189 -41 86 -75 158 -75 160
0 1 -22 49 -49 106 -27 57 -99 209 -160 338 -62 129 -121 243 -133 253 -22 18
-31 18 -243 2 -33 -3 -147 -12 -252 -20 -106 -8 -201 -18 -210 -24 -14 -7 -28
-3 -58 18 -38 26 -40 29 -43 86 -3 66 -21 95 -58 95 -13 0 -30 -10 -38 -22z
m55 -90 l-1 -73 49 -23 c80 -37 113 -129 75 -208 -20 -41 -58 -73 -96 -81
l-28 -5 0 -692 0 -692 253 -83 c138 -46 267 -88 285 -93 17 -5 32 -15 32 -23
0 -13 -80 -15 -585 -15 -494 0 -585 2 -585 14 0 12 286 112 523 183 l47 14 0
693 0 694 -28 5 c-61 12 -112 81 -112 152 0 71 47 134 114 151 27 6 27 8 25
79 -2 76 6 104 24 86 5 -5 9 -43 8 -83z m995 -413 c91 -193 199 -424 241 -514
l77 -163 -24 -45 c-30 -57 -87 -106 -175 -149 -111 -54 -179 -67 -325 -62
-148 6 -227 28 -323 93 -64 43 -123 109 -133 151 -5 19 48 138 222 506 126
265 231 486 233 491 2 6 -4 7 -15 3 -27 -11 -592 -186 -599 -186 -3 0 -3 15 0
33 6 29 -3 66 -30 130 -6 15 0 17 61 18 38 0 191 11 339 23 149 13 274 23 278
22 4 -1 82 -159 173 -351z m-1203 188 c-3 -35 1 -59 15 -85 l20 -38 -32 -4
c-17 -3 -157 -14 -311 -26 -153 -11 -280 -22 -282 -24 -1 -1 98 -215 222 -476
124 -260 230 -488 236 -505 11 -29 9 -38 -15 -79 -49 -84 -162 -158 -303 -198
-111 -31 -286 -31 -398 1 -116 32 -206 83 -270 153 -30 32 -57 69 -60 81 -4
15 65 172 233 527 132 277 246 508 253 512 8 4 145 45 304 92 160 47 308 92
330 100 61 22 63 21 58 -31z"/>
<path d="M1483 2314 c-59 -30 -68 -113 -16 -154 91 -72 203 64 117 142 -29 25
-65 30 -101 12z m81 -44 c13 -12 10 -58 -4 -75 -16 -19 -40 -19 -68 1 -28 19
-28 48 -1 75 20 20 51 19 73 -1z"/>
<path d="M2312 2246 c-23 -50 -121 -257 -218 -461 -96 -203 -178 -376 -181
-382 -4 -10 89 -13 445 -13 l450 0 -220 468 c-121 257 -223 470 -227 473 -3 4
-25 -34 -49 -85z m77 -48 c10 -24 44 -97 76 -163 74 -155 78 -165 62 -170 -6
-2 -39 -11 -71 -21 -40 -12 -79 -34 -119 -67 -57 -48 -60 -49 -105 -41 -70 12
-75 12 -99 -3 -21 -12 -22 -12 -14 9 24 61 53 124 184 398 35 73 52 99 65 100
1 0 11 -19 21 -42z m161 -451 c0 -90 -12 -133 -53 -193 -44 -65 -148 -119
-147 -76 1 11 20 26 53 42 69 33 105 98 114 201 l6 71 -24 -7 c-88 -26 -146
-75 -170 -143 l-11 -31 -37 25 c-21 14 -55 28 -76 31 l-38 6 7 -39 c15 -75 40
-108 103 -129 42 -15 58 -45 23 -45 -38 0 -99 39 -127 81 -21 31 -28 57 -31
105 l-4 64 38 0 c22 0 58 -9 80 -19 l42 -19 23 36 c13 20 42 49 64 64 39 27
142 60 158 51 4 -2 7 -37 7 -76z m74 -50 c11 -23 42 -88 69 -144 27 -56 46
-106 43 -112 -5 -7 -62 -11 -162 -11 l-156 0 57 52 c67 61 90 103 105 192 7
36 15 66 19 66 3 0 15 -19 25 -43z m-164 -20 c0 -14 -128 -161 -144 -165 -6
-1 -29 18 -50 44 -28 33 -35 49 -27 57 8 8 20 2 44 -21 l34 -33 62 71 c57 64
81 78 81 47z m-351 -67 c10 -51 20 -68 68 -120 l55 -60 -126 0 c-103 0 -126 3
-126 14 0 21 99 226 109 226 5 0 14 -27 20 -60z"/>
<path d="M651 2038 c-5 -13 -110 -236 -234 -495 l-225 -473 488 0 489 0 -33
73 c-19 39 -105 223 -192 407 -88 184 -177 374 -199 422 -33 72 -44 87 -63 88
-14 0 -26 -8 -31 -22z m93 -150 c30 -62 73 -153 96 -203 23 -49 56 -118 72
-152 16 -34 29 -65 28 -69 -1 -4 2 -10 7 -13 17 -12 155 -319 149 -330 -5 -7
-74 -11 -216 -11 l-209 0 18 53 c10 28 29 76 42 106 l24 53 25 -20 25 -20 -28
-26 c-15 -14 -27 -34 -27 -45 0 -24 25 -51 47 -51 33 0 146 65 164 94 17 28
17 31 1 59 -11 19 -43 41 -94 65 -56 27 -80 44 -89 65 -13 31 -52 45 -74 27
-17 -14 -48 -80 -72 -152 -19 -59 -32 -71 -57 -52 -19 14 -19 15 7 42 33 34
36 77 7 92 -25 13 -72 -1 -143 -43 -83 -50 -75 -106 23 -159 84 -45 100 -57
100 -73 0 -13 -23 -15 -142 -15 -79 0 -149 4 -156 9 -10 6 5 47 67 176 45 92
81 170 81 172 0 2 22 49 49 106 107 224 174 364 187 395 8 17 19 32 25 32 5 0
34 -51 63 -112z m8 -451 c1 -5 -25 -78 -57 -163 -46 -119 -63 -154 -77 -154
-10 0 -18 4 -18 9 0 5 24 71 53 148 30 76 57 146 60 156 7 18 37 21 39 4z
m-172 -77 c0 -16 -15 -28 -62 -49 l-62 -27 66 -31 c57 -27 66 -34 61 -52 -5
-20 -9 -19 -84 21 -104 55 -105 70 -6 120 85 44 87 44 87 18z m285 -17 c104
-52 103 -69 -5 -123 -79 -40 -80 -40 -80 -17 0 19 12 29 60 52 l61 29 -61 27
c-45 21 -60 33 -60 48 0 12 2 21 5 21 2 0 38 -17 80 -37z"/>
</g>
</svg>
